<mxfile host="app.diagrams.net" agent="Mozilla/5.0 (Windows NT 10.0; Win64; x64) AppleWebKit/537.36 (KHTML, like Gecko) Chrome/131.0.0.0 Safari/537.36" version="24.8.9">
  <diagram name="Page-1" id="s_g5MeOMcuv1QIJYrQFg">
    <mxGraphModel dx="1050" dy="522" grid="0" gridSize="10" guides="1" tooltips="1" connect="1" arrows="1" fold="1" page="1" pageScale="1" pageWidth="827" pageHeight="1169" math="0" shadow="0">
      <root>
        <mxCell id="0" />
        <mxCell id="1" parent="0" />
        <mxCell id="ZhMuwOZdjaP_0ZJq1GdS-1" value="Nurse" style="rounded=0;whiteSpace=wrap;html=1;" vertex="1" parent="1">
          <mxGeometry x="146" y="110" width="122" height="34" as="geometry" />
        </mxCell>
        <mxCell id="ZhMuwOZdjaP_0ZJq1GdS-2" value="Ward" style="rounded=0;whiteSpace=wrap;html=1;" vertex="1" parent="1">
          <mxGeometry x="529" y="113" width="122" height="34" as="geometry" />
        </mxCell>
        <mxCell id="ZhMuwOZdjaP_0ZJq1GdS-3" value="Patient" style="rounded=0;whiteSpace=wrap;html=1;" vertex="1" parent="1">
          <mxGeometry x="532" y="255" width="122" height="34" as="geometry" />
        </mxCell>
        <mxCell id="ZhMuwOZdjaP_0ZJq1GdS-4" value="Consultant" style="rounded=0;whiteSpace=wrap;html=1;" vertex="1" parent="1">
          <mxGeometry x="310" y="355" width="122" height="34" as="geometry" />
        </mxCell>
        <mxCell id="ZhMuwOZdjaP_0ZJq1GdS-5" value="Drug" style="rounded=0;whiteSpace=wrap;html=1;" vertex="1" parent="1">
          <mxGeometry x="150" y="243" width="122" height="34" as="geometry" />
        </mxCell>
        <mxCell id="ZhMuwOZdjaP_0ZJq1GdS-12" style="edgeStyle=orthogonalEdgeStyle;rounded=0;orthogonalLoop=1;jettySize=auto;html=1;exitX=1;exitY=0.5;exitDx=0;exitDy=0;entryX=0;entryY=0.25;entryDx=0;entryDy=0;endArrow=none;endFill=0;" edge="1" parent="1" source="ZhMuwOZdjaP_0ZJq1GdS-6" target="ZhMuwOZdjaP_0ZJq1GdS-1">
          <mxGeometry relative="1" as="geometry" />
        </mxCell>
        <mxCell id="ZhMuwOZdjaP_0ZJq1GdS-6" value="Name" style="ellipse;whiteSpace=wrap;html=1;" vertex="1" parent="1">
          <mxGeometry x="25" y="66" width="73" height="40" as="geometry" />
        </mxCell>
        <mxCell id="ZhMuwOZdjaP_0ZJq1GdS-9" value="&lt;u&gt;Number&lt;/u&gt;" style="ellipse;whiteSpace=wrap;html=1;" vertex="1" parent="1">
          <mxGeometry x="128" y="34" width="73" height="40" as="geometry" />
        </mxCell>
        <mxCell id="ZhMuwOZdjaP_0ZJq1GdS-13" style="edgeStyle=orthogonalEdgeStyle;rounded=0;orthogonalLoop=1;jettySize=auto;html=1;exitX=1;exitY=0.5;exitDx=0;exitDy=0;entryX=0;entryY=0.5;entryDx=0;entryDy=0;endArrow=none;endFill=0;" edge="1" parent="1" source="ZhMuwOZdjaP_0ZJq1GdS-10" target="ZhMuwOZdjaP_0ZJq1GdS-1">
          <mxGeometry relative="1" as="geometry" />
        </mxCell>
        <mxCell id="ZhMuwOZdjaP_0ZJq1GdS-10" value="Address" style="ellipse;whiteSpace=wrap;html=1;" vertex="1" parent="1">
          <mxGeometry x="25" y="126" width="73" height="40" as="geometry" />
        </mxCell>
        <mxCell id="ZhMuwOZdjaP_0ZJq1GdS-14" style="edgeStyle=orthogonalEdgeStyle;rounded=0;orthogonalLoop=1;jettySize=auto;html=1;exitX=0.5;exitY=1;exitDx=0;exitDy=0;entryX=0.151;entryY=0;entryDx=0;entryDy=0;entryPerimeter=0;endArrow=none;endFill=0;" edge="1" parent="1" source="ZhMuwOZdjaP_0ZJq1GdS-9" target="ZhMuwOZdjaP_0ZJq1GdS-1">
          <mxGeometry relative="1" as="geometry" />
        </mxCell>
        <mxCell id="ZhMuwOZdjaP_0ZJq1GdS-18" style="edgeStyle=orthogonalEdgeStyle;rounded=0;orthogonalLoop=1;jettySize=auto;html=1;exitX=1;exitY=0.5;exitDx=0;exitDy=0;entryX=0;entryY=0.25;entryDx=0;entryDy=0;endArrow=none;endFill=0;" edge="1" parent="1" source="ZhMuwOZdjaP_0ZJq1GdS-15" target="ZhMuwOZdjaP_0ZJq1GdS-5">
          <mxGeometry relative="1" as="geometry" />
        </mxCell>
        <mxCell id="ZhMuwOZdjaP_0ZJq1GdS-15" value="&lt;u&gt;Code Number&lt;/u&gt;" style="ellipse;whiteSpace=wrap;html=1;" vertex="1" parent="1">
          <mxGeometry x="14" y="190" width="73" height="40" as="geometry" />
        </mxCell>
        <mxCell id="ZhMuwOZdjaP_0ZJq1GdS-19" style="edgeStyle=orthogonalEdgeStyle;rounded=0;orthogonalLoop=1;jettySize=auto;html=1;exitX=1;exitY=0.5;exitDx=0;exitDy=0;entryX=0;entryY=0.75;entryDx=0;entryDy=0;endArrow=none;endFill=0;" edge="1" parent="1" source="ZhMuwOZdjaP_0ZJq1GdS-16" target="ZhMuwOZdjaP_0ZJq1GdS-5">
          <mxGeometry relative="1" as="geometry" />
        </mxCell>
        <mxCell id="ZhMuwOZdjaP_0ZJq1GdS-16" value="Dosage" style="ellipse;whiteSpace=wrap;html=1;" vertex="1" parent="1">
          <mxGeometry x="14" y="264" width="73" height="40" as="geometry" />
        </mxCell>
        <mxCell id="ZhMuwOZdjaP_0ZJq1GdS-17" value="Brand Name" style="ellipse;whiteSpace=wrap;html=1;" vertex="1" parent="1">
          <mxGeometry x="152" y="170" width="73" height="40" as="geometry" />
        </mxCell>
        <mxCell id="ZhMuwOZdjaP_0ZJq1GdS-20" value="" style="ellipse;whiteSpace=wrap;html=1;shadow=0;gradientColor=none;fillStyle=auto;fillColor=none;" vertex="1" parent="1">
          <mxGeometry x="146" y="166" width="85" height="48" as="geometry" />
        </mxCell>
        <mxCell id="ZhMuwOZdjaP_0ZJq1GdS-21" style="edgeStyle=orthogonalEdgeStyle;rounded=0;orthogonalLoop=1;jettySize=auto;html=1;exitX=0.5;exitY=1;exitDx=0;exitDy=0;entryX=0.311;entryY=0.018;entryDx=0;entryDy=0;entryPerimeter=0;endArrow=none;endFill=0;" edge="1" parent="1" source="ZhMuwOZdjaP_0ZJq1GdS-20" target="ZhMuwOZdjaP_0ZJq1GdS-5">
          <mxGeometry relative="1" as="geometry" />
        </mxCell>
        <mxCell id="ZhMuwOZdjaP_0ZJq1GdS-27" value="" style="edgeStyle=orthogonalEdgeStyle;rounded=0;orthogonalLoop=1;jettySize=auto;html=1;endArrow=none;endFill=0;" edge="1" parent="1" source="ZhMuwOZdjaP_0ZJq1GdS-22" target="ZhMuwOZdjaP_0ZJq1GdS-4">
          <mxGeometry relative="1" as="geometry" />
        </mxCell>
        <mxCell id="ZhMuwOZdjaP_0ZJq1GdS-22" value="Name" style="ellipse;whiteSpace=wrap;html=1;" vertex="1" parent="1">
          <mxGeometry x="307" y="422" width="73" height="40" as="geometry" />
        </mxCell>
        <mxCell id="ZhMuwOZdjaP_0ZJq1GdS-26" value="" style="edgeStyle=orthogonalEdgeStyle;rounded=0;orthogonalLoop=1;jettySize=auto;html=1;endArrow=none;endFill=0;" edge="1" parent="1" source="ZhMuwOZdjaP_0ZJq1GdS-23" target="ZhMuwOZdjaP_0ZJq1GdS-4">
          <mxGeometry relative="1" as="geometry" />
        </mxCell>
        <mxCell id="ZhMuwOZdjaP_0ZJq1GdS-23" value="&lt;u&gt;ID&lt;/u&gt;" style="ellipse;whiteSpace=wrap;html=1;" vertex="1" parent="1">
          <mxGeometry x="177" y="352" width="73" height="40" as="geometry" />
        </mxCell>
        <mxCell id="ZhMuwOZdjaP_0ZJq1GdS-30" value="" style="edgeStyle=orthogonalEdgeStyle;rounded=0;orthogonalLoop=1;jettySize=auto;html=1;endArrow=none;endFill=0;" edge="1" parent="1" source="ZhMuwOZdjaP_0ZJq1GdS-28" target="ZhMuwOZdjaP_0ZJq1GdS-2">
          <mxGeometry relative="1" as="geometry" />
        </mxCell>
        <mxCell id="ZhMuwOZdjaP_0ZJq1GdS-28" value="&lt;u&gt;ID&lt;/u&gt;" style="ellipse;whiteSpace=wrap;html=1;" vertex="1" parent="1">
          <mxGeometry x="501" y="26" width="73" height="40" as="geometry" />
        </mxCell>
        <mxCell id="ZhMuwOZdjaP_0ZJq1GdS-31" value="" style="edgeStyle=orthogonalEdgeStyle;rounded=0;orthogonalLoop=1;jettySize=auto;html=1;endArrow=none;endFill=0;" edge="1" parent="1" source="ZhMuwOZdjaP_0ZJq1GdS-29" target="ZhMuwOZdjaP_0ZJq1GdS-2">
          <mxGeometry relative="1" as="geometry">
            <Array as="points">
              <mxPoint x="636" y="92" />
              <mxPoint x="636" y="92" />
            </Array>
          </mxGeometry>
        </mxCell>
        <mxCell id="ZhMuwOZdjaP_0ZJq1GdS-29" value="Name" style="ellipse;whiteSpace=wrap;html=1;" vertex="1" parent="1">
          <mxGeometry x="599" y="26" width="73" height="40" as="geometry" />
        </mxCell>
        <mxCell id="ZhMuwOZdjaP_0ZJq1GdS-41" style="edgeStyle=orthogonalEdgeStyle;rounded=0;orthogonalLoop=1;jettySize=auto;html=1;entryX=1;entryY=0.75;entryDx=0;entryDy=0;endArrow=none;endFill=0;" edge="1" parent="1" source="ZhMuwOZdjaP_0ZJq1GdS-32" target="ZhMuwOZdjaP_0ZJq1GdS-3">
          <mxGeometry relative="1" as="geometry" />
        </mxCell>
        <mxCell id="ZhMuwOZdjaP_0ZJq1GdS-32" value="Birth of Date" style="ellipse;whiteSpace=wrap;html=1;" vertex="1" parent="1">
          <mxGeometry x="695" y="277" width="73" height="40" as="geometry" />
        </mxCell>
        <mxCell id="ZhMuwOZdjaP_0ZJq1GdS-37" value="" style="edgeStyle=orthogonalEdgeStyle;rounded=0;orthogonalLoop=1;jettySize=auto;html=1;endArrow=none;endFill=0;" edge="1" parent="1" source="ZhMuwOZdjaP_0ZJq1GdS-33" target="ZhMuwOZdjaP_0ZJq1GdS-3">
          <mxGeometry relative="1" as="geometry" />
        </mxCell>
        <mxCell id="ZhMuwOZdjaP_0ZJq1GdS-33" value="&lt;u&gt;ID&lt;/u&gt;" style="ellipse;whiteSpace=wrap;html=1;" vertex="1" parent="1">
          <mxGeometry x="567" y="336" width="73" height="40" as="geometry" />
        </mxCell>
        <mxCell id="ZhMuwOZdjaP_0ZJq1GdS-39" value="" style="edgeStyle=orthogonalEdgeStyle;rounded=0;orthogonalLoop=1;jettySize=auto;html=1;endArrow=none;endFill=0;" edge="1" parent="1" source="ZhMuwOZdjaP_0ZJq1GdS-34" target="ZhMuwOZdjaP_0ZJq1GdS-3">
          <mxGeometry relative="1" as="geometry">
            <Array as="points">
              <mxPoint x="645" y="230" />
            </Array>
          </mxGeometry>
        </mxCell>
        <mxCell id="ZhMuwOZdjaP_0ZJq1GdS-34" value="Name" style="ellipse;whiteSpace=wrap;html=1;" vertex="1" parent="1">
          <mxGeometry x="691" y="210" width="73" height="40" as="geometry" />
        </mxCell>
        <mxCell id="ZhMuwOZdjaP_0ZJq1GdS-46" style="edgeStyle=orthogonalEdgeStyle;rounded=0;orthogonalLoop=1;jettySize=auto;html=1;exitX=0.5;exitY=1;exitDx=0;exitDy=0;endArrow=ERoneToMany;endFill=0;" edge="1" parent="1" source="ZhMuwOZdjaP_0ZJq1GdS-42">
          <mxGeometry relative="1" as="geometry">
            <mxPoint x="587" y="254.79998779296875" as="targetPoint" />
          </mxGeometry>
        </mxCell>
        <mxCell id="ZhMuwOZdjaP_0ZJq1GdS-48" style="edgeStyle=orthogonalEdgeStyle;rounded=0;orthogonalLoop=1;jettySize=auto;html=1;exitX=0.5;exitY=0;exitDx=0;exitDy=0;endArrow=circle;endFill=0;" edge="1" parent="1" source="ZhMuwOZdjaP_0ZJq1GdS-42">
          <mxGeometry relative="1" as="geometry">
            <mxPoint x="587" y="147.5999755859375" as="targetPoint" />
          </mxGeometry>
        </mxCell>
        <mxCell id="ZhMuwOZdjaP_0ZJq1GdS-42" value="Host" style="rhombus;whiteSpace=wrap;html=1;" vertex="1" parent="1">
          <mxGeometry x="563" y="175" width="48" height="46" as="geometry" />
        </mxCell>
        <mxCell id="ZhMuwOZdjaP_0ZJq1GdS-51" style="edgeStyle=orthogonalEdgeStyle;rounded=0;orthogonalLoop=1;jettySize=auto;html=1;exitX=0;exitY=0.5;exitDx=0;exitDy=0;entryX=1;entryY=0.5;entryDx=0;entryDy=0;endArrow=circle;endFill=0;" edge="1" parent="1" source="ZhMuwOZdjaP_0ZJq1GdS-49" target="ZhMuwOZdjaP_0ZJq1GdS-4">
          <mxGeometry relative="1" as="geometry" />
        </mxCell>
        <mxCell id="ZhMuwOZdjaP_0ZJq1GdS-49" value="Assign" style="rhombus;whiteSpace=wrap;html=1;" vertex="1" parent="1">
          <mxGeometry x="476" y="336" width="48" height="46" as="geometry" />
        </mxCell>
        <mxCell id="ZhMuwOZdjaP_0ZJq1GdS-50" style="edgeStyle=orthogonalEdgeStyle;rounded=0;orthogonalLoop=1;jettySize=auto;html=1;exitX=1;exitY=0.5;exitDx=0;exitDy=0;entryX=0.148;entryY=1.076;entryDx=0;entryDy=0;entryPerimeter=0;endArrow=ERoneToMany;endFill=0;" edge="1" parent="1" source="ZhMuwOZdjaP_0ZJq1GdS-49" target="ZhMuwOZdjaP_0ZJq1GdS-3">
          <mxGeometry relative="1" as="geometry" />
        </mxCell>
        <mxCell id="ZhMuwOZdjaP_0ZJq1GdS-53" value="" style="edgeStyle=orthogonalEdgeStyle;rounded=0;orthogonalLoop=1;jettySize=auto;html=1;endArrow=ERoneToMany;endFill=0;" edge="1" parent="1" source="ZhMuwOZdjaP_0ZJq1GdS-52" target="ZhMuwOZdjaP_0ZJq1GdS-3">
          <mxGeometry relative="1" as="geometry" />
        </mxCell>
        <mxCell id="ZhMuwOZdjaP_0ZJq1GdS-52" value="Examine" style="rhombus;whiteSpace=wrap;html=1;" vertex="1" parent="1">
          <mxGeometry x="419" y="267" width="58" height="46" as="geometry" />
        </mxCell>
        <mxCell id="ZhMuwOZdjaP_0ZJq1GdS-55" style="edgeStyle=orthogonalEdgeStyle;rounded=0;orthogonalLoop=1;jettySize=auto;html=1;exitX=0;exitY=0.5;exitDx=0;exitDy=0;entryX=0.689;entryY=-0.053;entryDx=0;entryDy=0;entryPerimeter=0;endArrow=ERoneToMany;endFill=0;" edge="1" parent="1" source="ZhMuwOZdjaP_0ZJq1GdS-52" target="ZhMuwOZdjaP_0ZJq1GdS-4">
          <mxGeometry relative="1" as="geometry" />
        </mxCell>
        <mxCell id="ZhMuwOZdjaP_0ZJq1GdS-60" style="edgeStyle=orthogonalEdgeStyle;rounded=0;orthogonalLoop=1;jettySize=auto;html=1;exitX=1;exitY=0.5;exitDx=0;exitDy=0;entryX=0;entryY=0.25;entryDx=0;entryDy=0;endArrow=ERone;endFill=0;" edge="1" parent="1" source="ZhMuwOZdjaP_0ZJq1GdS-56" target="ZhMuwOZdjaP_0ZJq1GdS-2">
          <mxGeometry relative="1" as="geometry" />
        </mxCell>
        <mxCell id="ZhMuwOZdjaP_0ZJq1GdS-56" value="Supervise" style="rhombus;whiteSpace=wrap;html=1;" vertex="1" parent="1">
          <mxGeometry x="343" y="23" width="73" height="46" as="geometry" />
        </mxCell>
        <mxCell id="ZhMuwOZdjaP_0ZJq1GdS-59" style="edgeStyle=orthogonalEdgeStyle;rounded=0;orthogonalLoop=1;jettySize=auto;html=1;exitX=0;exitY=0.5;exitDx=0;exitDy=0;entryX=0.911;entryY=0.094;entryDx=0;entryDy=0;entryPerimeter=0;endArrow=circle;endFill=0;" edge="1" parent="1">
          <mxGeometry relative="1" as="geometry">
            <mxPoint x="343" y="45.8" as="sourcePoint" />
            <mxPoint x="257.14200000000005" y="112.99600000000002" as="targetPoint" />
          </mxGeometry>
        </mxCell>
        <mxCell id="ZhMuwOZdjaP_0ZJq1GdS-62" style="edgeStyle=orthogonalEdgeStyle;rounded=0;orthogonalLoop=1;jettySize=auto;html=1;exitX=1;exitY=0.5;exitDx=0;exitDy=0;endArrow=circle;endFill=0;" edge="1" parent="1" source="ZhMuwOZdjaP_0ZJq1GdS-61">
          <mxGeometry relative="1" as="geometry">
            <mxPoint x="528.4000244140625" y="136" as="targetPoint" />
          </mxGeometry>
        </mxCell>
        <mxCell id="ZhMuwOZdjaP_0ZJq1GdS-63" value="" style="edgeStyle=orthogonalEdgeStyle;rounded=0;orthogonalLoop=1;jettySize=auto;html=1;endArrow=ERoneToMany;endFill=0;" edge="1" parent="1" source="ZhMuwOZdjaP_0ZJq1GdS-61" target="ZhMuwOZdjaP_0ZJq1GdS-1">
          <mxGeometry relative="1" as="geometry" />
        </mxCell>
        <mxCell id="ZhMuwOZdjaP_0ZJq1GdS-61" value="Serve" style="rhombus;whiteSpace=wrap;html=1;" vertex="1" parent="1">
          <mxGeometry x="355.5" y="91" width="48" height="45" as="geometry" />
        </mxCell>
        <mxCell id="ZhMuwOZdjaP_0ZJq1GdS-64" value="Record" style="rhombus;whiteSpace=wrap;html=1;" vertex="1" parent="1">
          <mxGeometry x="366" y="193" width="48" height="46" as="geometry" />
        </mxCell>
        <mxCell id="ZhMuwOZdjaP_0ZJq1GdS-65" style="edgeStyle=orthogonalEdgeStyle;rounded=0;orthogonalLoop=1;jettySize=auto;html=1;exitX=1;exitY=0.5;exitDx=0;exitDy=0;entryX=0.18;entryY=0.018;entryDx=0;entryDy=0;entryPerimeter=0;endArrow=ERoneToMany;endFill=0;" edge="1" parent="1" source="ZhMuwOZdjaP_0ZJq1GdS-64" target="ZhMuwOZdjaP_0ZJq1GdS-3">
          <mxGeometry relative="1" as="geometry" />
        </mxCell>
        <mxCell id="ZhMuwOZdjaP_0ZJq1GdS-66" style="edgeStyle=orthogonalEdgeStyle;rounded=0;orthogonalLoop=1;jettySize=auto;html=1;exitX=0;exitY=0.5;exitDx=0;exitDy=0;entryX=0.898;entryY=-0.053;entryDx=0;entryDy=0;entryPerimeter=0;endArrow=ERoneToMany;endFill=0;" edge="1" parent="1" source="ZhMuwOZdjaP_0ZJq1GdS-64" target="ZhMuwOZdjaP_0ZJq1GdS-5">
          <mxGeometry relative="1" as="geometry" />
        </mxCell>
        <mxCell id="ZhMuwOZdjaP_0ZJq1GdS-67" style="edgeStyle=orthogonalEdgeStyle;rounded=0;orthogonalLoop=1;jettySize=auto;html=1;exitX=0.5;exitY=0;exitDx=0;exitDy=0;entryX=0.852;entryY=1.035;entryDx=0;entryDy=0;entryPerimeter=0;endArrow=ERoneToMany;endFill=0;" edge="1" parent="1" source="ZhMuwOZdjaP_0ZJq1GdS-64" target="ZhMuwOZdjaP_0ZJq1GdS-1">
          <mxGeometry relative="1" as="geometry" />
        </mxCell>
        <mxCell id="ZhMuwOZdjaP_0ZJq1GdS-72" style="edgeStyle=orthogonalEdgeStyle;rounded=0;orthogonalLoop=1;jettySize=auto;html=1;exitX=1;exitY=0.5;exitDx=0;exitDy=0;entryX=0;entryY=1;entryDx=0;entryDy=0;endArrow=none;endFill=0;" edge="1" parent="1" source="ZhMuwOZdjaP_0ZJq1GdS-68" target="ZhMuwOZdjaP_0ZJq1GdS-64">
          <mxGeometry relative="1" as="geometry" />
        </mxCell>
        <mxCell id="ZhMuwOZdjaP_0ZJq1GdS-68" value="Time" style="ellipse;whiteSpace=wrap;html=1;" vertex="1" parent="1">
          <mxGeometry x="292" y="227" width="46" height="40" as="geometry" />
        </mxCell>
        <mxCell id="ZhMuwOZdjaP_0ZJq1GdS-71" style="edgeStyle=orthogonalEdgeStyle;rounded=0;orthogonalLoop=1;jettySize=auto;html=1;exitX=0;exitY=0.5;exitDx=0;exitDy=0;entryX=1;entryY=0;entryDx=0;entryDy=0;endArrow=none;endFill=0;" edge="1" parent="1" source="ZhMuwOZdjaP_0ZJq1GdS-69" target="ZhMuwOZdjaP_0ZJq1GdS-64">
          <mxGeometry relative="1" as="geometry" />
        </mxCell>
        <mxCell id="ZhMuwOZdjaP_0ZJq1GdS-69" value="Date" style="ellipse;whiteSpace=wrap;html=1;" vertex="1" parent="1">
          <mxGeometry x="409" y="162" width="48" height="40" as="geometry" />
        </mxCell>
        <mxCell id="ZhMuwOZdjaP_0ZJq1GdS-73" style="edgeStyle=orthogonalEdgeStyle;rounded=0;orthogonalLoop=1;jettySize=auto;html=1;exitX=1;exitY=0;exitDx=0;exitDy=0;entryX=0.5;entryY=1;entryDx=0;entryDy=0;endArrow=none;endFill=0;" edge="1" parent="1" source="ZhMuwOZdjaP_0ZJq1GdS-70" target="ZhMuwOZdjaP_0ZJq1GdS-64">
          <mxGeometry relative="1" as="geometry" />
        </mxCell>
        <mxCell id="ZhMuwOZdjaP_0ZJq1GdS-70" value="Certain&lt;div&gt;Drug&lt;/div&gt;" style="ellipse;whiteSpace=wrap;html=1;" vertex="1" parent="1">
          <mxGeometry x="292" y="277" width="46" height="40" as="geometry" />
        </mxCell>
      </root>
    </mxGraphModel>
  </diagram>
</mxfile>
